<?xml version="1.0" encoding="UTF-8"?>
<!DOCTYPE svg PUBLIC "-//W3C//DTD SVG 1.1//EN" "http://www.w3.org/Graphics/SVG/1.1/DTD/svg11.dtd">
<!-- Creator: CorelDRAW X7 -->
<svg xmlns="http://www.w3.org/2000/svg" xml:space="preserve" width="8.5in" height="11in" version="1.1" style="shape-rendering:geometricPrecision; text-rendering:geometricPrecision; image-rendering:optimizeQuality; fill-rule:evenodd; clip-rule:evenodd"
viewBox="0 0 8500 11000"
 xmlns:xlink="http://www.w3.org/1999/xlink">
 <defs>
  <style type="text/css">
   <![CDATA[
    .fil0 {fill:white}
   ]]>
  </style>
 </defs>
 <g id="Layer_x0020_1">
  <metadata id="CorelCorpID_0Corel-Layer"/>
  <g id="_448718992">
   <path class="fil0" d="M3419 5174l160 1307c9,76 74,134 151,134l795 0c77,0 142,-58 151,-134l160 -1307 -1417 0zm439 1232c-1,0 -3,0 -4,0 -23,0 -43,-18 -45,-41l-75 -933c-2,-25 16,-47 41,-49 25,-2 47,17 49,42l75 932c2,25 -16,47 -41,49zm315 -45c0,25 -21,45 -46,45 -25,0 -45,-20 -45,-45l0 -933c0,-24 20,-45 45,-45 25,0 46,21 46,45l0 933zm348 -929l-75 933c-2,23 -22,41 -45,41 -2,0 -3,0 -4,0 -25,-2 -43,-24 -41,-49l75 -932c2,-25 24,-44 49,-42 25,2 43,24 41,49z"/>
   <path class="fil0" d="M4896 4962l-411 0c-19,0 -35,-12 -41,-29l-32 -93c-17,-48 -62,-80 -112,-80l-345 0c-50,0 -95,32 -112,80l-32 93c-6,17 -23,29 -41,29l-412 0c-20,0 -37,17 -37,38l0 72c0,21 17,38 37,38l1538 0c21,0 38,-17 38,-38l0 -72c0,-21 -17,-38 -38,-38zm-952 -87c2,-7 9,-12 17,-12l333 0c8,0 15,5 17,12l30 87 -428 0 31 -87z"/>
  </g>
 </g>
</svg>
